# xmcd CD database file
#
# Track frame offsets:
#	182
#	12912
#	26217
#	39530
#	53025
#	66017
#	77967
#	95027
#	106052
#	118252
#	129827
#	140460
#
# Disc length: 2065 seconds
#
# Revision: 3
# Processed by: cddbd v1.5.1PL0 Copyright (c) Steve Scherf et al.
# Submitted via: CDex 1.51
#
DISCID=a0080f0c
DTITLE=Sivuca - Selecao de Ouro - Sivuca
DYEAR=1992
DGENRE=Forro
TTITLE0=Xanana
TTITLE1=Queixo de Cobra
TTITLE2=Alagamar
TTITLE3=Vale do Rio do Peixe
TTITLE4=Sao Joao de Sapoti
TTITLE5=Forro Chorado
TTITLE6=Quadrilha do Bacurau
TTITLE7=Feira de Itabaiana
TTITLE8=Dancando em Pipirituba
TTITLE9=Fava de Cheiro
TTITLE10=Forro em Santa Luzia
TTITLE11=furiosa de Quipapa
EXTD=YEAR: 1992
EXTT0=
EXTT1=
EXTT2=
EXTT3=
EXTT4=
EXTT5=
EXTT6=
EXTT7=
EXTT8=
EXTT9=
EXTT10=
EXTT11=
PLAYORDER=
